<mxfile host="app.diagrams.net" modified="2024-03-05T14:03:05.765Z" agent="Mozilla/5.0 (Windows NT 10.0; Win64; x64) AppleWebKit/537.36 (KHTML, like Gecko) Chrome/122.0.0.0 Safari/537.36" etag="M0q9EOlUhvuntLLe29rv" version="23.1.7" type="github">
  <diagram name="Page-1" id="xX_NBZjKe_LPrtMDj7VY">
    <mxGraphModel dx="1311" dy="656" grid="1" gridSize="10" guides="1" tooltips="1" connect="1" arrows="1" fold="1" page="1" pageScale="1" pageWidth="827" pageHeight="1169" math="0" shadow="0">
      <root>
        <mxCell id="0" />
        <mxCell id="1" parent="0" />
        <mxCell id="9RMESNlKo9HE9ouMvkY_-1" value="&lt;h1 style=&quot;text-align: center;&quot;&gt;Céu&lt;/h1&gt;&lt;p&gt;O ceu é composto por anjos, por santos e, é claro, por Deus. Os anjos e santos desempenham funções particulares. Os anjos são alocados para olharem por mortais ainda na terra. Cada mortal tem dois anjos que o guardam, e cada anjo da guarda è alocado para apenas um mortal. Os santos ficam o dia todo atendendo pedidos provenientes dos mortais. Algumas vezes, asses atendimentos são entendidos como milagres. Os dados que devem ser armazenados sobre os anjos são a cor das asas, nome e idade sobre os santos são: cor das vestes, data de beatificação e nome: sobre os moradores comuns deve ser armazenado o nome, data de nascimento e estado civil. Além de tudo isso, um anjo sempre é supervisionado por outros anjos, o qual pode supervisonar vários anjos. Sobre Deus, não se sabe muita coisa, e por isso atribui-se apenas um código para leitura.&lt;br&gt;&lt;/p&gt;" style="text;html=1;spacing=5;spacingTop=-20;whiteSpace=wrap;overflow=hidden;rounded=0;" parent="1" vertex="1">
          <mxGeometry x="80" y="10" width="680" height="190" as="geometry" />
        </mxCell>
        <mxCell id="GF6JiUIMJ9W_f_Lmu7Dp-1" value="Deus" style="rounded=0;whiteSpace=wrap;html=1;" parent="1" vertex="1">
          <mxGeometry x="80" y="340" width="120" height="60" as="geometry" />
        </mxCell>
        <mxCell id="GF6JiUIMJ9W_f_Lmu7Dp-2" value="Santos" style="rounded=0;whiteSpace=wrap;html=1;" parent="1" vertex="1">
          <mxGeometry x="560" y="340" width="120" height="60" as="geometry" />
        </mxCell>
        <mxCell id="GF6JiUIMJ9W_f_Lmu7Dp-3" value="Anjos" style="rounded=0;whiteSpace=wrap;html=1;" parent="1" vertex="1">
          <mxGeometry x="360" y="340" width="120" height="60" as="geometry" />
        </mxCell>
        <mxCell id="iydpVZZWQlCGy9Ujbgti-2" value="Cor das asas" style="ellipse;whiteSpace=wrap;html=1;" parent="1" vertex="1">
          <mxGeometry x="250" y="345" width="110" height="50" as="geometry" />
        </mxCell>
        <mxCell id="iydpVZZWQlCGy9Ujbgti-4" value="Nome&lt;span style=&quot;white-space: pre;&quot;&gt;&#x9;&lt;/span&gt;&lt;span style=&quot;white-space: pre;&quot;&gt;&#x9;&lt;/span&gt;" style="ellipse;whiteSpace=wrap;html=1;" parent="1" vertex="1">
          <mxGeometry x="250" y="395" width="110" height="50" as="geometry" />
        </mxCell>
        <mxCell id="iydpVZZWQlCGy9Ujbgti-5" value="Idade" style="ellipse;whiteSpace=wrap;html=1;" parent="1" vertex="1">
          <mxGeometry x="250" y="445" width="110" height="50" as="geometry" />
        </mxCell>
        <mxCell id="iydpVZZWQlCGy9Ujbgti-6" value="Cor das vestes" style="ellipse;whiteSpace=wrap;html=1;" parent="1" vertex="1">
          <mxGeometry x="680" y="345" width="110" height="50" as="geometry" />
        </mxCell>
        <mxCell id="iydpVZZWQlCGy9Ujbgti-7" value="Data Beatificação" style="ellipse;whiteSpace=wrap;html=1;" parent="1" vertex="1">
          <mxGeometry x="680" y="395" width="110" height="50" as="geometry" />
        </mxCell>
        <mxCell id="iydpVZZWQlCGy9Ujbgti-8" value="Nome" style="ellipse;whiteSpace=wrap;html=1;" parent="1" vertex="1">
          <mxGeometry x="680" y="445" width="110" height="50" as="geometry" />
        </mxCell>
        <mxCell id="iydpVZZWQlCGy9Ujbgti-9" value="Código" style="ellipse;whiteSpace=wrap;html=1;" parent="1" vertex="1">
          <mxGeometry x="85" y="400" width="110" height="50" as="geometry" />
        </mxCell>
        <mxCell id="gCH9M3XOQH9FHg-50oaK-1" value="" style="endArrow=none;html=1;rounded=0;exitX=0.5;exitY=1;exitDx=0;exitDy=0;endFill=0;" edge="1" parent="1" source="GF6JiUIMJ9W_f_Lmu7Dp-3">
          <mxGeometry relative="1" as="geometry">
            <mxPoint x="360" y="430" as="sourcePoint" />
            <mxPoint x="420" y="500" as="targetPoint" />
          </mxGeometry>
        </mxCell>
        <mxCell id="gCH9M3XOQH9FHg-50oaK-2" value="N" style="edgeLabel;resizable=0;html=1;;align=center;verticalAlign=middle;" connectable="0" vertex="1" parent="gCH9M3XOQH9FHg-50oaK-1">
          <mxGeometry relative="1" as="geometry" />
        </mxCell>
        <mxCell id="gCH9M3XOQH9FHg-50oaK-3" value="N" style="edgeLabel;html=1;align=center;verticalAlign=middle;resizable=0;points=[];" vertex="1" connectable="0" parent="gCH9M3XOQH9FHg-50oaK-1">
          <mxGeometry x="-0.0086" relative="1" as="geometry">
            <mxPoint as="offset" />
          </mxGeometry>
        </mxCell>
        <mxCell id="gCH9M3XOQH9FHg-50oaK-4" value="Olha" style="rhombus;whiteSpace=wrap;html=1;" vertex="1" parent="1">
          <mxGeometry x="380" y="500" width="80" height="80" as="geometry" />
        </mxCell>
        <mxCell id="gCH9M3XOQH9FHg-50oaK-5" value="" style="endArrow=none;html=1;rounded=0;exitX=0.5;exitY=1;exitDx=0;exitDy=0;endFill=0;" edge="1" parent="1">
          <mxGeometry relative="1" as="geometry">
            <mxPoint x="419.94" y="580" as="sourcePoint" />
            <mxPoint x="419.94" y="680" as="targetPoint" />
          </mxGeometry>
        </mxCell>
        <mxCell id="gCH9M3XOQH9FHg-50oaK-6" value="N" style="edgeLabel;resizable=0;html=1;;align=center;verticalAlign=middle;" connectable="0" vertex="1" parent="gCH9M3XOQH9FHg-50oaK-5">
          <mxGeometry relative="1" as="geometry" />
        </mxCell>
        <mxCell id="gCH9M3XOQH9FHg-50oaK-7" value="1" style="edgeLabel;html=1;align=center;verticalAlign=middle;resizable=0;points=[];" vertex="1" connectable="0" parent="gCH9M3XOQH9FHg-50oaK-5">
          <mxGeometry x="-0.0086" relative="1" as="geometry">
            <mxPoint as="offset" />
          </mxGeometry>
        </mxCell>
        <mxCell id="gCH9M3XOQH9FHg-50oaK-8" value="Mortal" style="rounded=0;whiteSpace=wrap;html=1;" vertex="1" parent="1">
          <mxGeometry x="360" y="680" width="120" height="60" as="geometry" />
        </mxCell>
        <mxCell id="gCH9M3XOQH9FHg-50oaK-9" value="" style="endArrow=none;html=1;rounded=0;endFill=0;" edge="1" parent="1">
          <mxGeometry relative="1" as="geometry">
            <mxPoint x="620" y="700" as="sourcePoint" />
            <mxPoint x="480" y="700" as="targetPoint" />
          </mxGeometry>
        </mxCell>
        <mxCell id="gCH9M3XOQH9FHg-50oaK-10" value="N" style="edgeLabel;resizable=0;html=1;;align=center;verticalAlign=middle;" connectable="0" vertex="1" parent="gCH9M3XOQH9FHg-50oaK-9">
          <mxGeometry relative="1" as="geometry" />
        </mxCell>
        <mxCell id="gCH9M3XOQH9FHg-50oaK-11" value="N" style="edgeLabel;html=1;align=center;verticalAlign=middle;resizable=0;points=[];" vertex="1" connectable="0" parent="gCH9M3XOQH9FHg-50oaK-9">
          <mxGeometry x="-0.0086" relative="1" as="geometry">
            <mxPoint as="offset" />
          </mxGeometry>
        </mxCell>
        <mxCell id="gCH9M3XOQH9FHg-50oaK-12" value="" style="endArrow=none;html=1;rounded=0;endFill=0;" edge="1" parent="1">
          <mxGeometry relative="1" as="geometry">
            <mxPoint x="619.41" y="400" as="sourcePoint" />
            <mxPoint x="620" y="500" as="targetPoint" />
          </mxGeometry>
        </mxCell>
        <mxCell id="gCH9M3XOQH9FHg-50oaK-13" value="N" style="edgeLabel;resizable=0;html=1;;align=center;verticalAlign=middle;" connectable="0" vertex="1" parent="gCH9M3XOQH9FHg-50oaK-12">
          <mxGeometry relative="1" as="geometry" />
        </mxCell>
        <mxCell id="gCH9M3XOQH9FHg-50oaK-14" value="N" style="edgeLabel;html=1;align=center;verticalAlign=middle;resizable=0;points=[];" vertex="1" connectable="0" parent="gCH9M3XOQH9FHg-50oaK-12">
          <mxGeometry x="-0.0086" relative="1" as="geometry">
            <mxPoint as="offset" />
          </mxGeometry>
        </mxCell>
        <mxCell id="gCH9M3XOQH9FHg-50oaK-15" value="Atende" style="rhombus;whiteSpace=wrap;html=1;" vertex="1" parent="1">
          <mxGeometry x="580" y="500" width="80" height="80" as="geometry" />
        </mxCell>
        <mxCell id="gCH9M3XOQH9FHg-50oaK-16" value="" style="endArrow=none;html=1;rounded=0;" edge="1" parent="1">
          <mxGeometry width="50" height="50" relative="1" as="geometry">
            <mxPoint x="620" y="700" as="sourcePoint" />
            <mxPoint x="620" y="580" as="targetPoint" />
          </mxGeometry>
        </mxCell>
        <mxCell id="gCH9M3XOQH9FHg-50oaK-17" value="Milagre" style="ellipse;whiteSpace=wrap;html=1;" vertex="1" parent="1">
          <mxGeometry x="660" y="517.5" width="90" height="45" as="geometry" />
        </mxCell>
        <mxCell id="gCH9M3XOQH9FHg-50oaK-18" value="Nome&lt;span style=&quot;white-space: pre;&quot;&gt;&#x9;&lt;/span&gt;" style="ellipse;whiteSpace=wrap;html=1;" vertex="1" parent="1">
          <mxGeometry x="375" y="740" width="90" height="45" as="geometry" />
        </mxCell>
        <mxCell id="gCH9M3XOQH9FHg-50oaK-19" value="Data Nascimento" style="ellipse;whiteSpace=wrap;html=1;" vertex="1" parent="1">
          <mxGeometry x="375" y="785" width="90" height="45" as="geometry" />
        </mxCell>
        <mxCell id="gCH9M3XOQH9FHg-50oaK-20" value="Estado Civil" style="ellipse;whiteSpace=wrap;html=1;" vertex="1" parent="1">
          <mxGeometry x="375" y="830" width="90" height="45" as="geometry" />
        </mxCell>
        <mxCell id="gCH9M3XOQH9FHg-50oaK-21" value="" style="endArrow=none;html=1;rounded=0;endFill=0;entryX=1;entryY=0.5;entryDx=0;entryDy=0;" edge="1" parent="1" target="GF6JiUIMJ9W_f_Lmu7Dp-3">
          <mxGeometry relative="1" as="geometry">
            <mxPoint x="520" y="340" as="sourcePoint" />
            <mxPoint x="480" y="345" as="targetPoint" />
          </mxGeometry>
        </mxCell>
        <mxCell id="gCH9M3XOQH9FHg-50oaK-22" value="N" style="edgeLabel;resizable=0;html=1;;align=center;verticalAlign=middle;" connectable="0" vertex="1" parent="gCH9M3XOQH9FHg-50oaK-21">
          <mxGeometry relative="1" as="geometry" />
        </mxCell>
        <mxCell id="gCH9M3XOQH9FHg-50oaK-23" value="1" style="edgeLabel;html=1;align=center;verticalAlign=middle;resizable=0;points=[];" vertex="1" connectable="0" parent="gCH9M3XOQH9FHg-50oaK-21">
          <mxGeometry x="-0.0086" relative="1" as="geometry">
            <mxPoint as="offset" />
          </mxGeometry>
        </mxCell>
        <mxCell id="gCH9M3XOQH9FHg-50oaK-25" value="Supervisão" style="rhombus;whiteSpace=wrap;html=1;" vertex="1" parent="1">
          <mxGeometry x="480" y="260" width="80" height="80" as="geometry" />
        </mxCell>
        <mxCell id="gCH9M3XOQH9FHg-50oaK-31" value="" style="endArrow=none;html=1;rounded=0;endFill=0;edgeStyle=orthogonalEdgeStyle;curved=1;entryX=0.5;entryY=0;entryDx=0;entryDy=0;exitX=0;exitY=0.5;exitDx=0;exitDy=0;" edge="1" parent="1" source="gCH9M3XOQH9FHg-50oaK-25" target="GF6JiUIMJ9W_f_Lmu7Dp-3">
          <mxGeometry relative="1" as="geometry">
            <mxPoint x="483" y="290" as="sourcePoint" />
            <mxPoint x="343" y="290" as="targetPoint" />
            <Array as="points">
              <mxPoint x="420" y="300" />
            </Array>
          </mxGeometry>
        </mxCell>
        <mxCell id="gCH9M3XOQH9FHg-50oaK-32" value="N" style="edgeLabel;resizable=0;html=1;;align=center;verticalAlign=middle;" connectable="0" vertex="1" parent="gCH9M3XOQH9FHg-50oaK-31">
          <mxGeometry relative="1" as="geometry" />
        </mxCell>
        <mxCell id="gCH9M3XOQH9FHg-50oaK-33" value="N" style="edgeLabel;html=1;align=center;verticalAlign=middle;resizable=0;points=[];" vertex="1" connectable="0" parent="gCH9M3XOQH9FHg-50oaK-31">
          <mxGeometry x="-0.0086" relative="1" as="geometry">
            <mxPoint as="offset" />
          </mxGeometry>
        </mxCell>
      </root>
    </mxGraphModel>
  </diagram>
</mxfile>
